<?xml version="1.0" standalone="no"?>
<!DOCTYPE svg PUBLIC "-//W3C//DTD SVG 20010904//EN"
 "http://www.w3.org/TR/2001/REC-SVG-20010904/DTD/svg10.dtd">
<svg version="1.0" xmlns="http://www.w3.org/2000/svg"
 width="425.000000pt" height="425.000000pt" viewBox="0 0 425.000000 425.000000"
 preserveAspectRatio="xMidYMid meet">

<g transform="translate(0.000000,425.000000) scale(0.100000,-0.100000)"
fill="#000000" stroke="none">
<path d="M1958 3889 c-332 -32 -668 -162 -923 -358 -342 -262 -573 -631 -666
-1058 -30 -140 -37 -436 -15 -590 54 -365 231 -722 495 -996 438 -456 1161
-640 1777 -452 112 34 312 120 350 150 l29 23 3 247 c2 142 -1 252 -6 257 -6
6 -48 -17 -108 -58 -141 -96 -317 -178 -460 -216 -110 -29 -132 -31 -294 -32
-134 -1 -195 3 -260 17 -697 149 -1147 731 -1089 1410 12 146 54 317 108 437
166 378 538 672 964 761 133 28 372 31 492 5 496 -107 875 -434 1025 -884 64
-195 63 -176 69 -892 7 -764 -2 -719 112 -560 266 370 379 794 324 1220 -53
423 -218 764 -510 1055 -145 145 -265 232 -445 324 -309 157 -642 222 -972
190z"/>
<path d="M1940 2994 c-175 -37 -323 -116 -445 -238 -103 -103 -171 -212 -221
-359 -39 -112 -39 -112 -38 -272 0 -148 2 -166 28 -245 187 -570 812 -805
1323 -499 l62 37 23 -25 c43 -47 120 -96 185 -120 81 -29 128 -30 143 -2 8 14
10 166 8 512 -4 467 -5 496 -26 567 -93 328 -356 577 -682 646 -82 17 -275 17
-360 -2z m272 -435 c155 -33 282 -150 330 -303 25 -79 21 -206 -10 -286 -43
-109 -141 -207 -252 -252 -45 -19 -75 -23 -166 -23 -107 0 -112 1 -185 37
-271 134 -340 472 -139 690 110 121 264 170 422 137z"/>
</g>
</svg>
